<?xml version="1.0" encoding="UTF-8"?><svg id="uuid-f03838e4-ac33-4758-b343-9166414f0d95" xmlns="http://www.w3.org/2000/svg" width="500" height="382.14" viewBox="0 0 500 382.14"><defs><style>.uuid-b9cb9477-9e28-464a-90dd-88e0bcd5f50e,.uuid-30a70d4f-7a04-422c-9a73-7e454d63c66e,.uuid-a0498efa-a985-465c-a7fa-170a404ecd09,.uuid-90b2a4f6-5396-45bb-86a4-c24418acd624,.uuid-3e886a08-9e0f-46ae-b7a9-7cc6d2cfb8f4{fill-rule:evenodd;}.uuid-b9cb9477-9e28-464a-90dd-88e0bcd5f50e,.uuid-3994e803-c634-4fdf-b0dd-8091b859ab7d{fill:#fff;}.uuid-59a76125-4fa0-4fee-b9fa-377af298ee21{fill:#390073;}.uuid-ed0c30a6-56e2-4413-a917-d9250f3a2247{fill:#390077;}.uuid-30a70d4f-7a04-422c-9a73-7e454d63c66e{fill:#666;}.uuid-a0498efa-a985-465c-a7fa-170a404ecd09{fill:#c7deee;}.uuid-38771e74-5693-4972-9c6e-186b10ce82db{fill:#4fe2ff;}.uuid-90b2a4f6-5396-45bb-86a4-c24418acd624{fill:#333;}.uuid-3e886a08-9e0f-46ae-b7a9-7cc6d2cfb8f4{fill:#999;}.uuid-df7a1833-e322-4cb7-ac5c-3b95f9033711{fill:#f2f2f2;}.uuid-a64a7eeb-6b83-4188-8149-1495aa47bb08{fill:#50a7ef;}</style></defs><path class="uuid-90b2a4f6-5396-45bb-86a4-c24418acd624" d="M481.82,176.53c-9.73-1.32-16.6.85-24.6-5.51-13.25-10.52-22.86-10.13-39.7-8.67.98-2.42,1.51-5.05,1.51-7.82,0-11.52-9.34-20.87-20.87-20.87-5.79,0-11.02,2.36-14.8,6.16-1.6-13.34-12.95-23.69-26.73-23.69-.92,0-1.83.05-2.72.14,3.4-4.28,5.44-9.69,5.44-15.58,0-11.45-7.69-21.11-18.18-24.09,1.51-4.64,2.33-9.58,2.33-14.72,0-1.07-.05-2.13-.12-3.18-.02-.28-.04-.55-.06-.82-.08-.94-.18-1.86-.31-2.78-.02-.12-.03-.24-.04-.35-.15-1.02-.35-2.02-.56-3.02-.06-.26-.12-.51-.18-.77-.2-.84-.42-1.67-.66-2.5-.05-.17-.1-.35-.15-.52-.29-.96-.62-1.9-.97-2.84-.09-.23-.18-.45-.27-.68-.3-.77-.63-1.53-.97-2.28-.09-.2-.18-.4-.27-.59-.42-.9-.87-1.77-1.35-2.64-.1-.18-.21-.37-.32-.55-.41-.72-.84-1.42-1.28-2.11-.13-.2-.25-.4-.39-.6-.54-.82-1.11-1.63-1.7-2.41-.1-.13-.21-.26-.31-.4-.52-.67-1.05-1.32-1.6-1.96-.16-.19-.33-.38-.49-.57-.65-.74-1.32-1.46-2.02-2.15-.07-.07-.15-.14-.22-.21-.64-.63-1.3-1.24-1.97-1.83-.19-.17-.39-.34-.58-.5-.75-.64-1.51-1.26-2.3-1.85,0,0,0,0-.01-.01-.8-.6-1.61-1.16-2.45-1.7-.22-.14-.43-.28-.65-.41-.75-.47-1.52-.93-2.3-1.37-.1-.06-.2-.12-.3-.17-.87-.48-1.76-.92-2.66-1.34-.09-.05-.18-.1-.28-.14-.19-.09-.37-.16-.56-.24-.45-.2-.91-.4-1.36-.58-.28-.11-.55-.22-.83-.33-.53-.21-1.07-.4-1.61-.59-.2-.07-.39-.13-.58-.2-.68-.23-1.36-.43-2.06-.62-.06-.02-.11-.03-.17-.05-4.03-1.11-8.28-1.72-12.66-1.72-5.09,0-9.99.8-14.59,2.29,0,0-.02,0-.03,0-.71.23-1.41.48-2.1.73-.22.08-.43.16-.65.25-.51.2-1.01.41-1.51.63-.15.06-.3.12-.44.18,0,0,.01,0,.02,0-13.66,6.07-23.94,18.39-27.19,33.33-4.01-4.04-9.56-6.54-15.7-6.54-5.62,0-10.74,2.09-14.65,5.54-4.18-1.69-8.74-2.62-13.53-2.62-19.94,0-36.1,16.16-36.1,36.1,0,4.95,1.01,9.67,2.82,13.97-.63.19-1.28.39-1.96.6.78.08,1.55.16,2.33.25.07.14.12.29.19.43-12.54.42-22.57,10.72-22.57,23.36,0,.98.06,1.95.18,2.9-3.05-1.59-6.52-2.49-10.2-2.49-11.35,0-20.69,8.56-21.95,19.57-.26.06-.51.16-.76.3-3.37-2.01-7.3-3.18-11.51-3.18-10.66,0-19.58,7.4-21.93,17.34-9.86,1.08-17.3,5.99-17.3,11.88,0,.62.08,1.23.24,1.82-.55.02-1.12.04-1.7.06-8.42.26-13.69,1.86-17.92,3.76h0c-.08.03-.15.07-.22.1-.26.12-.52.24-.77.36-.12.06-.23.11-.35.17-.23.11-.46.22-.68.33-.11.06-.23.11-.34.17-.23.12-.46.24-.69.35-.1.05-.19.1-.28.15-.29.15-.57.3-.85.44-.03.02-.06.03-.08.04-.39.21-.78.41-1.17.61-.23.12-.45.24-.68.35-.12.06-.24.12-.35.18-.19.1-.39.2-.59.29-.13.06-.26.13-.39.19-.19.09-.38.18-.57.28-.13.06-.27.13-.4.19-.2.09-.39.18-.59.27-.13.06-.26.11-.39.17-.24.1-.49.21-.74.3-.09.03-.18.07-.26.11-.33.13-.67.26-1.02.38-.11.04-.22.07-.33.11-.25.08-.5.16-.75.24-.14.04-.28.08-.43.12-.23.07-.47.13-.71.2-.15.04-.31.08-.47.12-.24.06-.49.11-.74.17-.16.03-.32.07-.48.1-.28.05-.56.1-.85.15-.15.02-.29.05-.43.07-.44.07-.89.13-1.35.18-13.56,1.46-13.56,5.63-13.56,5.63h89.28c12.63,5.37,36,8.97,62.75,8.97,14.11,0,27.28-1.01,38.43-2.74,17.18,8.36,41.71,13.59,68.94,13.59,33.34,0,62.62-7.84,79.34-19.67l47.12.05h98.29s-9.2-9.74-18.18-10.96Z"/><path class="uuid-3e886a08-9e0f-46ae-b7a9-7cc6d2cfb8f4" d="M280.05,11.38c-22.79,0-41.84,16.03-46.49,37.42-4.01-4.04-9.56-6.54-15.7-6.54-5.62,0-10.74,2.1-14.64,5.54-4.18-1.69-8.74-2.62-13.53-2.62-19.94,0-36.1,16.16-36.1,36.1,0,5.45,1.21,10.62,3.37,15.25-12.54.42-22.57,10.72-22.57,23.36,0,.98.06,1.95.18,2.9-3.05-1.59-6.52-2.49-10.2-2.49-11.59,0-21.1,8.92-22.04,20.27-3.51-2.26-7.69-3.57-12.18-3.57-10.66,0-19.58,7.4-21.93,17.33-9.86,1.08-17.3,5.99-17.3,11.88,0,.62.08,1.23.24,1.82-.55.02-1.12.04-1.7.06-20.45.63-22.33,9.18-35.89,10.64C0,180.2,0,184.38,0,184.38h89.28c12.63,5.37,36,8.97,62.74,8.97,14.11,0,27.28-1,38.43-2.74,17.18,8.36,41.71,13.59,68.94,13.59,33.34,0,62.62-7.84,79.33-19.67l47.13.05h98.29s-9.2-9.76-18.18-10.98c-9.73-1.32-16.6.84-24.6-5.51-13.25-10.52-22.86-10.13-39.7-8.67.98-2.41,1.52-5.05,1.52-7.82,0-11.53-9.34-20.87-20.87-20.87-5.79,0-11.02,2.36-14.8,6.16-1.6-13.34-12.95-23.69-26.73-23.69-.92,0-1.83.05-2.72.14,3.4-4.28,5.44-9.69,5.44-15.58,0-11.45-7.69-21.11-18.18-24.09,1.51-4.63,2.32-9.58,2.32-14.72,0-26.28-21.3-47.58-47.58-47.58Z"/><path class="uuid-30a70d4f-7a04-422c-9a73-7e454d63c66e" d="M303.37,69.22c-.69,5.09-2.17,9.89-4.28,14.28,10,4.37,16.32,14.97,14.78,26.32-.79,5.84-3.53,10.93-7.48,14.71.9.03-4.56-.76,2.72.23,7.28.99,27.48,6.95,27.27,20.39,16.35-15.26,42.22-.04,30.82,26.91,19.48-4.43,23.4,6.21,24.29,12.54h92.65s-9.2-9.76-18.18-10.98c-9.73-1.32-16.6.84-24.6-5.51-13.25-10.52-22.86-10.13-39.7-8.67.98-2.41,1.52-5.05,1.52-7.82,0-11.53-9.34-20.87-20.87-20.87-5.79,0-11.02,2.36-14.8,6.16-1.6-13.34-12.95-23.69-26.73-23.69-.92,0-1.83.05-2.72.14,3.4-4.28,5.44-9.69,5.44-15.58,0-11.45-7.69-21.11-18.18-24.09,1.51-4.63,2.32-9.58,2.32-14.72,0-19.19-11.37-35.74-27.74-43.26-12.29-5.65-26.8-5.73-39.16-.23.62.06,1.25.13,1.87.22,26.04,3.53,44.29,27.5,40.76,53.54Z"/><path class="uuid-30a70d4f-7a04-422c-9a73-7e454d63c66e" d="M154.45,95.86c11.01-3.38,15.89-4.85,27.06.61,11.34,5.55,19.36,20.79,14.85,32.61l-2.26,3.92c-.41-7.01-.03-12.02-3.49-18.47-7.66-14.25-21.28-17.2-36.16-18.67Z"/><path class="uuid-a0498efa-a985-465c-a7fa-170a404ecd09" d="M308.46,85c-19.22-1.33-35.32-1.65-47.41,15.51l-2.67,3.69.16-4.74c2.48-12.79,16.61-20.35,28.54-20.63,10.15-.23,13.4,1.24,21.38,6.17Z"/><path class="uuid-30a70d4f-7a04-422c-9a73-7e454d63c66e" d="M101.44,140.3c5.03-3.37,13.49,12.1,14.3,14.12l.57,2.15c7.28-2.26,22.23-1.04,23.53,11.7l-2.36-2.15c-10.87-10.18-17.66-.42-24.53-1.55-3.93-5.73-.98-.4-2.83-8.21-2.15-9.12-4.26-10.28-8.68-16.05Z"/><path class="uuid-b9cb9477-9e28-464a-90dd-88e0bcd5f50e" d="M275.97,92.95c10.5-6.43,22.31-6.26,26.36.36,4.06,6.63-7.52,7.95-18.03,14.37-10.5,6.43-15.96,15.53-20.02,8.9-4.06-6.63,1.18-17.21,11.68-23.64Z"/><path class="uuid-b9cb9477-9e28-464a-90dd-88e0bcd5f50e" d="M391.54,138.25c-4.3-3.49-9.57-4.12-11.78-1.41-2.2,2.71,2.88,3.99,7.18,7.49,4.3,3.49,6.19,7.87,8.39,5.16,2.2-2.71.5-7.74-3.8-11.24Z"/><path class="uuid-b9cb9477-9e28-464a-90dd-88e0bcd5f50e" d="M329.77,78.57c-4.3-3.49-9.57-4.12-11.78-1.41-2.2,2.71,2.88,3.99,7.18,7.48,4.3,3.49,6.19,7.88,8.39,5.17,2.2-2.72.5-7.74-3.8-11.24Z"/><path class="uuid-30a70d4f-7a04-422c-9a73-7e454d63c66e" d="M259.39,191.68c-27.23,0-51.75-5.23-68.94-13.59-11.15,1.74-24.32,2.74-38.43,2.74-26.74,0-50.11-3.61-62.74-8.97H31.53c-6.05,2.71-9.99,6.03-17.97,6.89-13.56,1.46-13.56,5.63-13.56,5.63h89.28c12.63,5.37,36,8.97,62.74,8.97,14.11,0,27.28-1,38.43-2.74,17.18,8.36,41.71,13.59,68.94,13.59,33.34,0,62.62-7.84,79.33-19.67l47.13.05h5.63c-.51-3.62-.88-13.07-1.13-13.17l-51.63.59c-16.72,11.82-46,19.66-79.34,19.66Z"/><path class="uuid-b9cb9477-9e28-464a-90dd-88e0bcd5f50e" d="M80.91,143.44c6.39-3.91,13.57-3.81,16.03.22,2.47,4.03-4.58,4.83-10.97,8.74-6.39,3.91-9.71,9.45-12.17,5.41-2.47-4.03.72-10.47,7.11-14.38Z"/><path class="uuid-b9cb9477-9e28-464a-90dd-88e0bcd5f50e" d="M150.19,102.54c6.39-3.91,13.57-3.81,16.04.22,2.47,4.03-4.58,4.83-10.97,8.74-6.39,3.91-9.71,9.44-12.18,5.41-2.47-4.03.72-10.47,7.11-14.37Z"/><path class="uuid-b9cb9477-9e28-464a-90dd-88e0bcd5f50e" d="M255.93,26.17c10.5-6.43,22.31-6.26,26.36.36,4.05,6.63-7.53,7.95-18.03,14.37-10.51,6.43-15.96,15.53-20.02,8.9-4.05-6.63,1.18-17.21,11.68-23.64Z"/><path class="uuid-b9cb9477-9e28-464a-90dd-88e0bcd5f50e" d="M172.88,56.22c10.5-6.42,22.31-6.26,26.36.36,4.05,6.63-7.53,7.95-18.03,14.37-10.5,6.43-15.96,15.53-20.02,8.9-4.05-6.63,1.18-17.21,11.68-23.64Z"/><path class="uuid-b9cb9477-9e28-464a-90dd-88e0bcd5f50e" d="M291.64,136.56c8.72-7.08,19.4-8.36,23.87-2.86,4.47,5.5-5.84,8.09-14.56,15.17-8.72,7.08-12.55,15.96-17.01,10.47-4.47-5.5-1.02-15.69,7.7-22.77Z"/><path class="uuid-b9cb9477-9e28-464a-90dd-88e0bcd5f50e" d="M210.75,91.03c5.15-7.55,13.19-11.03,17.95-7.78,4.76,3.25-2.67,7.67-7.82,15.21-5.15,7.55-6.07,15.37-10.83,12.12-4.76-3.25-4.45-12,.7-19.55Z"/><path d="M263.7,135.18c.79-2.03,1.76-4,2.82-5.9.33-.59.65-1.18.94-1.77.13-.74.23-1.47.31-2.2.23-2-.12-4.27-.46-6.46l-.06-.39c-.09-.14-.35-.44-.77-.74-1.72-1.22-3.54-2.41-5.3-3.55-.64-.41-1.28-.83-1.91-1.25-1.19-.78-2.32-1.59-3.39-2.42,0,3.2-.36,6.4-.97,9.6-.68,3.58-1.32,7.17-2.03,10.74-.16.81-.35,1.61-.54,2.41,3.76.04,7.56.82,11.36,1.92Z"/><path d="M381.82,52.33c-3.55-6.67-12.45-10.87-19.03-9.64-5.67,1.06-10.57,3.49-14.84,7.32-4.33,3.87-6.39,8.77-6.67,14.49-.41,8.44,2.36,15.82,7.78,22.15,3.64,4.24,7.64,8.18,11.46,12.26,3.28,3.51,5.93,7.35,7.04,12.15,2.69,11.62-4.29,19.73-13.05,23.66-.84.38-1.37,0-1.46-.97-.19-1.93-.37-3.87-.51-5.81-.94-12.72-3.94-24.94-8.98-36.65-3.85-8.96-9.16-16.86-16.94-22.94-3.68-2.87-7.63-5.23-12.1-6.59-8.5-2.59-17.11-4.71-25.96-5.67-3.9-.43-7.63-1.5-11.21-3.07-2.25-.99-4.2-2.45-5.74-4.39-.68-.85-.85-1.67-.07-2.6,2.13-2.53,3.07-5.59,3.1-8.78.03-2.64-.48-5.3-.94-7.92-.31-1.75-.2-3.27.56-4.93.9-1.97,1.66-4.09,1.95-6.22.56-4.1.42-8.25-.31-12.35-.21-1.19-.47-2.39-.87-3.52-.41-1.16-1.25-1.47-2.31-.87-.84.47-1.62,1.08-2.33,1.73-2.99,2.71-5.62,5.72-7.73,9.18-1.31,2.14-1.36,2.01-3.71,1.52-2.01-.42-4.08-.87-6.11-.83-2.24.04-3.47-.86-4.66-2.67-1.73-2.63-3.79-5.05-5.84-7.45-.85-1-1.98-1.8-3.1-2.51-1.28-.81-2.31-.37-2.87,1.06-.17.45-.25.94-.35,1.41-.67,3.09-1.44,6.16-1.97,9.27-.64,3.73-1.12,7.62.48,11.14,1.22,2.68,1.15,5.06.24,7.66-.28.79-.41,1.65-.54,2.49-.72,4.69-.18,9.24,1.96,13.48.63,1.26,1.56,2.59,2.71,3.32,1.76,1.12,2.48,2.46,2.48,4.47,0,2.06.35,4.11.39,6.17.07,3.65.06,7.3,0,10.95-.06,4.14.18,8.26.91,12.35,1.16,6.45,3.6,12.31,7.65,17.53,2.88,3.71,6.35,6.69,10.23,9.25,2.44,1.6,4.91,3.16,7.29,4.85.74.53,1.59,1.38,1.71,2.18.38,2.51.83,5.11.55,7.59-.42,3.7-1.36,7.3-2.56,10.81,2.62.88,5.24,1.85,7.85,2.76,2.36-2.3,4.42-4.47,6.39-6.44.98-2.06,1.98-4.11,2.93-6.18.69-1.5.82-1.49,2.59-.98.73.21,1.46.45,2.18.69,4.84-3.04,10.7-4.57,20.18-3.79,12.82,1.06,20.07,5.71,28.2,15.13-12.34-7.74-26.71-14.39-40.91-8.59.53.61.83,1.42.99,2.43.54,3.53,1.8,6.81,3.82,9.77.68,1,1.51,1.9,2.24,2.87.46.61.19,1.26-.56,1.24-2.55-.07-5.09-.21-7.64-.35-1.7-.1-3.4-.36-5.09-.32-1.19.03-2.44.29-3.53.76-2.37,1.01-3.8,3.79-3.44,6.29.44,3.08,1.82,4.53,4.89,5.01.96.15,1.94.17,2.91.17,8.27.01,16.54,0,24.82,0,0,.04,0,.07,0,.12,5.96,0,11.92.03,17.88-.01,3.16-.02,6.32-.1,9.48-.23,3.15-.14,5.65-1.37,6.81-4.54.36-.99.38-2.38,1.07-2.93.87-.69,2.27-.7,3.44-1.02.47-.13.94-.26,1.38-.46,11.93-5.46,20.51-13.8,23.16-27.16,1.26-6.36.76-12.56-1.77-18.59-2.32-5.54-6.16-9.87-10.6-13.74-3.57-3.12-7.16-6.22-10.11-9.98-2.97-3.79-4.51-8.04-4.11-12.88.34-4.09,2.23-7.47,5.47-9.92,4.95-3.74,10.31-3,14.09,1.83.73.93,1.16,2.11,1.62,3.22.36.89.49,1.88.83,2.79.63,1.67,1.89,2.44,3.69,2.36,1.93-.08,3.43-1.31,4.15-3.54,1.11-3.43.62-6.75-1.04-9.87Z"/><path class="uuid-df7a1833-e322-4cb7-ac5c-3b95f9033711" d="M172.66,114.88h0s61.84,2.36,61.84,2.36c1.19.04,2.36.42,3.32,1.11,4.79,3.44,7.33,11.1,8.76,21.62h0c1.43,10.52,1.02,18.58-2.68,23.17-.75.93-1.77,1.59-2.91,1.96l-58.97,18.77c-.27.1-.55.17-.84.21-6.33.86-13.56-13.93-16.16-33.03-2.01-14.77-.65-27.8,2.99-33.34,1.07-1.63,2.33-2.61,3.77-2.8.29-.04.58-.05.87-.02Z"/><path class="uuid-3994e803-c634-4fdf-b0dd-8091b859ab7d" d="M165.03,151.04s2.08,3.52,3.71,1.38c1.63-2.14.64-11.24-1.09-14.7-1.72-3.47-5.03-2.09-3.47,3.84s.85,9.48.85,9.48Z"/><path class="uuid-3994e803-c634-4fdf-b0dd-8091b859ab7d" d="M184.77,169.03s1.46,1.95,3.27-.44,2-7.35.4-8.56c-1.59-1.21-3.6-1.46-3.71,1.57-.11,3.03.03,7.44.03,7.44Z"/><path class="uuid-59a76125-4fa0-4fee-b9fa-377af298ee21" d="M182.13,177.54s-2.96,5.89-8.37-4.87l-2.34-7.2-1.69-5.72s6.8,1.32,14.8-2.01c0,0,1.34,14.89-2.4,19.81Z"/><path class="uuid-38771e74-5693-4972-9c6e-186b10ce82db" d="M236.72,125.53c-1.05-2.3-3.29-3.81-5.82-3.9l-31.53-1.04c-.37-.02-.89,0-1.41.26-1.99.99-2.03,4.54-2.02,11.59,0,9.16.05,9.29-.17,10.35-.93,4.59-3.13,8.63-3.98,10.2-1.95,3.59-2.72,3.8-3.32,6.17-.97,3.84.54,5.24-.86,7.66-1.43,2.47-3.54,1.94-4.88,4.58-.79,1.56-1.31,4.23-.1,5.57,2.11,2.34,8.73-.21,12.94-1.82.59-.23,2.73-1.07,5.9-2.26.97-.36,1.76-.65,2.29-.85l.89-.3s0,0,0,0l31.83-9.99c2.37-.74,4.14-2.75,4.54-5.2,1.41-8.55-.23-22.06-4.32-31.04Z"/><path class="uuid-a64a7eeb-6b83-4188-8149-1495aa47bb08" d="M242.22,149.7c0,2.49-.17,4.85-.52,6.98-.45,2.71-2.37,4.91-5.01,5.74l-31.81,9.98s0,0-.01,0l-.89.3c-.51.19-1.3.48-2.27.84-2.58.96-4.5,1.71-5.41,2.07l-.48.19c-4.48,1.72-11.26,4.33-13.69,1.65-1.51-1.67-.83-4.71,0-6.34.78-1.54,1.83-2.14,2.75-2.68.83-.48,1.54-.89,2.14-1.93.64-1.1.57-1.94.49-3.11-.08-1.1-.18-2.47.3-4.38.39-1.55.87-2.27,1.59-3.36.46-.7,1.03-1.57,1.79-2.96.82-1.51,3-5.52,3.91-10.01.16-.79.16-.96.16-6.19,0-1.1,0-2.43,0-4.02,0-7.1,0-11.01,2.4-12.2.52-.26,1.11-.37,1.75-.33l31.51,1.04c2.79.09,5.25,1.74,6.41,4.29h0c3.07,6.74,4.89,16.26,4.89,24.45ZM204.46,171.11l31.83-9.99c2.15-.68,3.71-2.46,4.08-4.67,1.44-8.76-.43-22.22-4.26-30.64h0c-.95-2.08-2.95-3.42-5.22-3.5l-31.53-1.04c-.42-.02-.78.04-1.08.19-1.65.82-1.65,4.65-1.65,10.98,0,1.6,0,2.92,0,4.02,0,5.32,0,5.52-.18,6.47-.95,4.69-3.2,8.83-4.05,10.39-.78,1.44-1.38,2.34-1.85,3.06-.69,1.05-1.07,1.63-1.41,2.95-.43,1.7-.34,2.9-.27,3.95.09,1.25.18,2.42-.67,3.89-.78,1.36-1.77,1.93-2.64,2.43-.87.5-1.62.94-2.22,2.11-.79,1.55-1.09,3.83-.2,4.81,1.8,1.99,8.56-.61,12.19-2l.48-.19c.92-.36,2.84-1.1,5.43-2.07.97-.36,1.77-.65,2.29-.85l.89-.3s.02,0,.03-.01h0s0,0,0,0ZM236.72,125.53h0s0,0,0,0Z"/><path class="uuid-a64a7eeb-6b83-4188-8149-1495aa47bb08" d="M241.51,140.4c.64,4.71.92,9.54.02,14.24-.32,1.47-.76,3.14-1.82,4.37-1.55,1.74-3.55.94-4.81-.63-1.19-1.43-1.97-3.12-2.65-4.81-2.77-7.4-4.02-16.71-2.78-24.53.21-1.17.49-2.35.96-3.47.08-.18.29-.27.47-.19.17.07.26.27.2.45-.36,1.07-.57,2.21-.71,3.35-.94,7.46.91,22.3,5.62,28.24.58.63,1.28,1.36,2.12.99,1.18-.75,1.63-2.69,1.95-4.06.45-2.23.56-4.55.56-6.84-.02-2.31-.2-4.62-.48-6.92-.09-.88,1.19-1.06,1.35-.18h0Z"/><path class="uuid-a64a7eeb-6b83-4188-8149-1495aa47bb08" d="M201.89,170.05c3.53-.59,3.92-8.2,4.08-11.1.37-8.68-.62-17.47-2.55-25.93-.48-2.12-1.05-4.22-1.83-6.21-.38-.96-.83-1.95-1.48-2.73-.68-.83-1.37-.91-2.12,0-.12.15-.34.17-.48.05-.14-.11-.16-.31-.06-.46.17-.24.37-.48.62-.68,2.88-2.05,5.1,4.57,5.75,6.51,1.71,5.27,2.55,10.78,3.11,16.27.59,6.6,1.07,13.4-.66,19.87-.58,1.86-1.42,4.1-3.4,4.9-.35.11-1.21.43-1.27-.13-.01-.18.12-.33.3-.36h0Z"/><path class="uuid-3994e803-c634-4fdf-b0dd-8091b859ab7d" d="M192.99,165.41s-2.32,1.48-2.23-2.65,2.68-8.49,3.67-8.23c.99.26.45,2.56-.36,4.57-.81,2.01,1.21,4.64-1.08,6.31Z"/><path class="uuid-3994e803-c634-4fdf-b0dd-8091b859ab7d" d="M198.17,135.41s-1.11-6.13-.18-7.35,3.07-.98,3.37,3.23c.3,4.21-2.67,7.95-3.19,4.12Z"/><path class="uuid-3994e803-c634-4fdf-b0dd-8091b859ab7d" d="M215.28,162.2s-5.33,1.81-5.42-2.56,6.96-5.85,15.19-7.88c8.23-2.04,11.41-2.67,11.79.1s.17,5.61-7.46,7.19c-8.53,1.77-14.1,3.15-14.1,3.15Z"/><path class="uuid-38771e74-5693-4972-9c6e-186b10ce82db" d="M184.55,202.56c-1.92,2.54-2.21,6.2-.73,9.02.57,1.09,1.42,2.07,2.54,2.57,1.12.5,2.54.43,3.47-.38.84-.73,1.16-1.95.91-3.04s-.99-2.01-1.92-2.63c-.9-.6-1.99-.93-2.75-1.7-.94-.95-1.2-2.38-1.24-3.72"/><path class="uuid-3994e803-c634-4fdf-b0dd-8091b859ab7d" d="M185.85,211.21c.09.37.25.74.54.97.3.23.76.29,1.04.03.41-.37.19-1.05-.13-1.5-.13-.19-.29-.38-.49-.49-.4-.22-.96-.05-1.18.35-.22.4-.06.96.34,1.18"/><path class="uuid-ed0c30a6-56e2-4413-a917-d9250f3a2247" d="M167.16,142.28c-.42-5.75-.86-17.13,2.69-21.78.82-1.04,2.21-1.59,3.49-1.05,3.02,1.25,5.1,6.19,6.25,9.08,4.49,12.17,6.9,29.66,5.21,42.54-.46,2.93-1.77,9.91-6,8.65-3.02-1.11-5.13-6.23-6.23-9.06-1.67-4.51-2.78-9.19-3.59-13.89-.03-.19.09-.36.28-.39.18-.03.35.09.39.26,1.27,5.75,2.8,11.53,5.41,16.82,2.43,4.73,5.61,8.19,7.65.81.89-3.39,1.13-6.93,1.21-10.44.08-11.76-1.61-23.72-5.66-34.79-.81-2.13-3.82-9.46-6.64-8.37-2.03,1.04-2.8,5.29-3.18,7.43-.74,4.66-.78,9.43-.61,14.15,0,.44-.64.47-.68.04h0Z"/><path class="uuid-38771e74-5693-4972-9c6e-186b10ce82db" d="M175.73,168.79c-6.49-.03-13.43,2.3-17.01,7.7-.67,1.01-1.22,2.18-1.09,3.38.13,1.2,1.18,2.36,2.39,2.23.55-.06,1.1-.38,1.64-.25.99.25,1.04,1.63.84,2.64-.78,3.82-1.9,7.61-2.05,11.51s.83,8.06,3.66,10.75c2.83,2.69,7.78,3.29,10.57.56,2.05-2,2.48-5.21,1.97-8.03s-1.81-5.43-2.79-8.13c-1.38-3.81-2.11-7.93-1.52-11.94s2.61-7.9,5.92-10.24c-1.64-.45-3.36-.61-5.06-.48"/><path class="uuid-59a76125-4fa0-4fee-b9fa-377af298ee21" d="M173.25,189.51c-1.67-3.24-2.42-6.92-2.26-10.56.06-1.4.26-2.81.04-4.2-.21-1.39-.92-2.79-2.18-3.41-1.65-.8-3.6-.03-5.27.73,4.01-3.07,9.43-4.22,14.34-3.03-1.39.91-2.28,2.39-3.12,3.82-.58.99-1.17,1.98-1.63,3.03-1.84,4.21-1.53,9.12-.04,13.47"/><path class="uuid-3994e803-c634-4fdf-b0dd-8091b859ab7d" d="M163.29,198.49c-.5.59-.42,1.47-.24,2.23.36,1.5,1.03,2.95,2.08,4.08.38.42.83.8,1.37.97s1.18.1,1.58-.3c.58-.57.45-1.55.08-2.28-.37-.72-.94-1.35-1.17-2.13-.1-.35-.14-.71-.19-1.07-.09-.63-.25-1.24-.47-1.84-.22-.58-.55-1.2-1.14-1.4-.66-.22-1.4.2-1.77.8-.37.59-.46,1.31-.54,2.01"/><path class="uuid-3994e803-c634-4fdf-b0dd-8091b859ab7d" d="M163.6,193.72c-.07.29.09.6.33.77.24.17.55.23.85.25.41.02.87-.06,1.14-.38.29-.34.27-.88.04-1.27-.3-.51-.95-.83-1.51-.64-.56.18-.9.92-.6,1.43"/><path class="uuid-3e886a08-9e0f-46ae-b7a9-7cc6d2cfb8f4" d="M230.22,180.84c17.8-3.58,44.22,11.19,60.93-.63l47.13.05h98.29s-9.2-9.76-18.18-10.98c-9.73-1.32-16.6.84-24.6-5.51-13.25-10.52-22.86-10.13-39.7-8.67.98-2.41,3.44-5.83,1.52-7.82-.86-10.22-9.07-12.1-16.53-7.13-4.54-14.95-44.48-14.28-44.48-14.28,0,0-12.61,11.19-16.7,19.79-35.01-25.76-44.41.99-47.64,5.9-20.39-21.28-32.15,5.62-28.87,12.91s11.04,19.95,28.84,16.36Z"/><path class="uuid-30a70d4f-7a04-422c-9a73-7e454d63c66e" d="M337.88,137.17c-13.58-8.52-29.64-15.73-45.21-6.43-14.91,8.91-7.51,19.67-23.62,12.91-15.79-6.63-26.02-7.97-36.77,7.02-4.8,6.7-5.63-10.06-24.54-3.13l-3.63,1.32c3.21-3.04,4.29-4.21,8.67-5.58,8.69-2.7,11.17,1.21,16.43,4.03,1.96-3.17,2.78-4.74,5.82-7.57,12.85-11.95,26.81-5.77,40.37-1.01,10.81-10.55,15.29-18.26,34.28-16.7,12.82,1.06,20.07,5.71,28.2,15.13Z"/><path class="uuid-b9cb9477-9e28-464a-90dd-88e0bcd5f50e" d="M239.93,149.33c6.12-5.53,13.91-6.88,17.39-3.02,3.49,3.86-3.97,6.16-10.09,11.69-6.12,5.53-8.58,12.19-12.07,8.33-3.49-3.86-1.36-11.47,4.76-17Z"/><path class="uuid-38771e74-5693-4972-9c6e-186b10ce82db" d="M161.45,220.78c-2.67,1.73-4.2,5.07-3.77,8.22.17,1.22.62,2.43,1.51,3.28.88.85,2.24,1.27,3.39.83,1.04-.4,1.76-1.44,1.9-2.54s-.24-2.23-.9-3.12c-.64-.87-1.55-1.55-2-2.54-.56-1.21-.32-2.65.11-3.92"/><path class="uuid-3994e803-c634-4fdf-b0dd-8091b859ab7d" d="M159.71,229.35c-.04.38-.02.78.18,1.1.2.32.62.53.97.39.51-.21.53-.93.39-1.46-.06-.23-.14-.45-.29-.63-.3-.34-.88-.38-1.23-.08-.34.3-.38.88-.08,1.23"/><path class="uuid-38771e74-5693-4972-9c6e-186b10ce82db" d="M187.51,237.17c-2.67,1.73-4.2,5.07-3.77,8.22.17,1.22.62,2.43,1.51,3.28.88.85,2.24,1.27,3.39.83,1.04-.4,1.76-1.44,1.9-2.54s-.24-2.23-.9-3.12c-.64-.87-1.55-1.55-2-2.54-.56-1.21-.32-2.65.11-3.92"/><path class="uuid-3994e803-c634-4fdf-b0dd-8091b859ab7d" d="M185.78,245.74c-.04.38-.02.78.18,1.1.2.32.62.53.97.39.51-.21.53-.93.39-1.46-.06-.23-.14-.45-.29-.63-.3-.34-.88-.38-1.23-.08-.34.3-.38.88-.08,1.23"/><path class="uuid-38771e74-5693-4972-9c6e-186b10ce82db" d="M167.28,264.56c-2.67,1.73-4.2,5.07-3.77,8.22.17,1.22.62,2.43,1.51,3.28.88.85,2.24,1.27,3.39.83,1.04-.4,1.76-1.44,1.9-2.54s-.24-2.23-.9-3.12c-.64-.87-1.55-1.55-2-2.54-.56-1.21-.32-2.65.11-3.92"/><path class="uuid-3994e803-c634-4fdf-b0dd-8091b859ab7d" d="M165.55,273.13c-.04.38-.02.78.18,1.1.2.32.62.53.97.39.51-.21.53-.93.39-1.46-.06-.23-.14-.45-.29-.63-.3-.34-.88-.38-1.23-.08-.34.3-.38.88-.08,1.23"/><path class="uuid-38771e74-5693-4972-9c6e-186b10ce82db" d="M215.57,239.81c-2.67,1.73-4.2,5.07-3.77,8.22.17,1.22.62,2.43,1.51,3.28.88.85,2.24,1.27,3.39.83,1.04-.4,1.76-1.44,1.9-2.54s-.24-2.23-.9-3.12c-.64-.87-1.55-1.55-2-2.54-.56-1.21-.32-2.65.11-3.92"/><path class="uuid-3994e803-c634-4fdf-b0dd-8091b859ab7d" d="M213.84,248.39c-.04.38-.02.78.18,1.1.2.32.62.53.97.39.51-.21.53-.93.39-1.46-.06-.23-.14-.45-.29-.63-.3-.34-.88-.38-1.23-.08-.34.3-.38.88-.08,1.23"/><path class="uuid-38771e74-5693-4972-9c6e-186b10ce82db" d="M206.04,270.82c-2.67,1.73-4.2,5.07-3.77,8.22.17,1.22.62,2.43,1.51,3.28.88.85,2.24,1.27,3.39.83,1.04-.4,1.76-1.44,1.9-2.54s-.24-2.23-.9-3.12c-.64-.87-1.55-1.55-2-2.54-.56-1.21-.32-2.65.11-3.92"/><path class="uuid-3994e803-c634-4fdf-b0dd-8091b859ab7d" d="M204.3,279.39c-.04.38-.02.78.18,1.1.2.32.62.53.97.39.51-.21.53-.93.39-1.46-.06-.23-.14-.45-.29-.63-.3-.34-.88-.38-1.23-.08-.34.3-.38.88-.08,1.23"/><path class="uuid-38771e74-5693-4972-9c6e-186b10ce82db" d="M241.1,283.95c-2.67,1.73-4.2,5.07-3.77,8.22.17,1.22.62,2.43,1.51,3.28.88.85,2.24,1.27,3.39.83,1.04-.4,1.76-1.44,1.9-2.54s-.24-2.23-.9-3.12c-.64-.87-1.55-1.55-2-2.54-.56-1.21-.32-2.65.11-3.92"/><path class="uuid-3994e803-c634-4fdf-b0dd-8091b859ab7d" d="M239.36,292.52c-.04.38-.02.78.18,1.1.2.32.62.53.97.39.51-.21.53-.93.39-1.46-.06-.23-.14-.45-.29-.63-.3-.34-.88-.38-1.23-.08-.34.3-.38.88-.08,1.23"/><path class="uuid-38771e74-5693-4972-9c6e-186b10ce82db" d="M190.09,293.8c-2.93,1.24-5.02,4.26-5.14,7.44-.05,1.23.19,2.5.91,3.5.72.99,1.99,1.64,3.19,1.41,1.09-.21,1.98-1.11,2.31-2.17s.15-2.24-.35-3.23c-.48-.97-1.26-1.8-1.53-2.85-.34-1.29.15-2.66.78-3.84"/><path class="uuid-3994e803-c634-4fdf-b0dd-8091b859ab7d" d="M186.89,301.95c-.11.36-.16.76-.02,1.11.14.35.52.63.89.55.54-.12.69-.82.64-1.37-.02-.23-.06-.47-.18-.67-.24-.39-.81-.52-1.19-.29-.39.24-.53.8-.3,1.19"/><path class="uuid-38771e74-5693-4972-9c6e-186b10ce82db" d="M217.31,300.6c-2.93,1.24-5.02,4.26-5.14,7.44-.05,1.23.19,2.5.91,3.5.72.99,1.99,1.64,3.19,1.41,1.09-.21,1.98-1.11,2.31-2.17s.15-2.24-.35-3.23c-.48-.97-1.26-1.8-1.53-2.85-.34-1.29.15-2.66.78-3.84"/><path class="uuid-3994e803-c634-4fdf-b0dd-8091b859ab7d" d="M214.11,308.75c-.11.36-.16.76-.02,1.11.14.35.52.63.89.55.54-.12.69-.82.64-1.37-.02-.23-.06-.47-.18-.67-.24-.39-.81-.52-1.19-.29-.39.24-.53.8-.3,1.19"/><path class="uuid-38771e74-5693-4972-9c6e-186b10ce82db" d="M190.93,353.73c-2.93,1.24-5.02,4.26-5.14,7.44-.05,1.23.19,2.5.91,3.5.72.99,1.99,1.64,3.19,1.41,1.09-.21,1.98-1.11,2.31-2.17s.15-2.24-.35-3.23c-.48-.97-1.26-1.8-1.53-2.85-.34-1.29.15-2.66.78-3.84"/><path class="uuid-3994e803-c634-4fdf-b0dd-8091b859ab7d" d="M187.73,361.87c-.11.36-.16.76-.02,1.11.14.35.52.63.89.55.54-.12.69-.82.64-1.37-.02-.23-.06-.47-.18-.67-.24-.39-.81-.52-1.19-.29-.39.24-.53.8-.3,1.19"/><path class="uuid-38771e74-5693-4972-9c6e-186b10ce82db" d="M203.24,327.79c-2.93,1.24-5.02,4.26-5.14,7.44-.05,1.23.19,2.5.91,3.5.72.99,1.99,1.64,3.19,1.41,1.09-.21,1.98-1.11,2.31-2.17s.15-2.24-.35-3.23c-.48-.97-1.26-1.8-1.53-2.85-.34-1.29.15-2.66.78-3.84"/><path class="uuid-3994e803-c634-4fdf-b0dd-8091b859ab7d" d="M200.04,335.94c-.11.36-.16.76-.02,1.11.14.35.52.63.89.55.54-.12.69-.82.64-1.37-.02-.23-.06-.47-.18-.67-.24-.39-.81-.52-1.19-.29-.39.24-.53.8-.3,1.19"/><path class="uuid-38771e74-5693-4972-9c6e-186b10ce82db" d="M240.75,340.69c-2.93,1.24-5.02,4.26-5.14,7.44-.05,1.23.19,2.5.91,3.5.72.99,1.99,1.64,3.19,1.41,1.09-.21,1.98-1.11,2.31-2.17s.15-2.24-.35-3.23c-.48-.97-1.26-1.8-1.53-2.85-.34-1.29.15-2.66.78-3.84"/><path class="uuid-3994e803-c634-4fdf-b0dd-8091b859ab7d" d="M237.55,348.84c-.11.36-.16.76-.02,1.11.14.35.52.63.89.55.54-.12.69-.82.64-1.37-.02-.23-.06-.47-.18-.67-.24-.39-.81-.52-1.19-.29-.39.24-.53.8-.3,1.19"/><path class="uuid-38771e74-5693-4972-9c6e-186b10ce82db" d="M218.51,368.58c-2.93,1.24-5.02,4.26-5.14,7.44-.05,1.23.19,2.5.91,3.5.72.99,1.99,1.64,3.19,1.41,1.09-.21,1.98-1.11,2.31-2.17s.15-2.24-.35-3.23c-.48-.97-1.26-1.8-1.53-2.85-.34-1.29.15-2.66.78-3.84"/><path class="uuid-3994e803-c634-4fdf-b0dd-8091b859ab7d" d="M215.31,376.72c-.11.36-.16.76-.02,1.11.14.35.52.63.89.55.54-.12.69-.82.64-1.37-.02-.23-.06-.47-.18-.67-.24-.39-.81-.52-1.19-.29-.39.24-.53.8-.3,1.19"/><path class="uuid-38771e74-5693-4972-9c6e-186b10ce82db" d="M249.06,369.75c-2.93,1.24-5.02,4.26-5.14,7.44-.05,1.23.19,2.5.91,3.5.72.99,1.99,1.64,3.19,1.41,1.09-.21,1.98-1.11,2.31-2.17s.15-2.24-.35-3.23c-.48-.97-1.26-1.8-1.53-2.85-.34-1.29.15-2.66.78-3.84"/><path class="uuid-3994e803-c634-4fdf-b0dd-8091b859ab7d" d="M245.86,377.89c-.11.36-.16.76-.02,1.11.14.35.52.63.89.55.54-.12.69-.82.64-1.37-.02-.23-.06-.47-.18-.67-.24-.39-.81-.52-1.19-.29-.39.24-.53.8-.3,1.19"/><path class="uuid-38771e74-5693-4972-9c6e-186b10ce82db" d="M261.56,318.49c-2.93,1.24-5.02,4.26-5.14,7.44-.05,1.23.19,2.5.91,3.5.72.99,1.99,1.64,3.19,1.41,1.09-.21,1.98-1.11,2.31-2.17s.15-2.24-.35-3.23c-.48-.97-1.26-1.8-1.53-2.85-.34-1.29.15-2.66.78-3.84"/><path class="uuid-3994e803-c634-4fdf-b0dd-8091b859ab7d" d="M258.37,326.64c-.11.36-.16.76-.02,1.11.14.35.52.63.89.55.54-.12.69-.82.64-1.37-.02-.23-.06-.47-.18-.67-.24-.39-.81-.52-1.19-.29-.39.24-.53.8-.3,1.19"/><path class="uuid-38771e74-5693-4972-9c6e-186b10ce82db" d="M272.85,350.51c-2.93,1.24-5.02,4.26-5.14,7.44-.05,1.23.19,2.5.91,3.5.72.99,1.99,1.64,3.19,1.41,1.09-.21,1.98-1.11,2.31-2.17s.15-2.24-.35-3.23c-.48-.97-1.26-1.8-1.53-2.85-.34-1.29.15-2.66.78-3.84"/><path class="uuid-3994e803-c634-4fdf-b0dd-8091b859ab7d" d="M269.66,358.66c-.11.36-.16.76-.02,1.11.14.35.52.63.89.55.54-.12.69-.82.64-1.37-.02-.23-.06-.47-.18-.67-.24-.39-.81-.52-1.19-.29-.39.24-.53.8-.3,1.19"/><path class="uuid-38771e74-5693-4972-9c6e-186b10ce82db" d="M287.26,324.63c-2.67,1.73-4.2,5.07-3.77,8.22.17,1.22.62,2.43,1.51,3.28.88.85,2.24,1.27,3.39.83,1.04-.4,1.76-1.44,1.9-2.54s-.24-2.23-.9-3.12c-.64-.87-1.55-1.55-2-2.54-.56-1.21-.32-2.65.11-3.92"/><path class="uuid-3994e803-c634-4fdf-b0dd-8091b859ab7d" d="M285.53,333.21c-.04.38-.02.78.18,1.1.2.32.62.53.97.39.51-.21.53-.93.39-1.46-.06-.23-.14-.45-.29-.63-.3-.34-.88-.38-1.23-.08-.34.3-.38.88-.08,1.23"/><path class="uuid-38771e74-5693-4972-9c6e-186b10ce82db" d="M242,255.21c-2.67,1.73-4.2,5.07-3.77,8.22.17,1.22.62,2.43,1.51,3.28.88.85,2.24,1.27,3.39.83,1.04-.4,1.76-1.44,1.9-2.54s-.24-2.23-.9-3.12c-.64-.87-1.55-1.55-2-2.54-.56-1.21-.32-2.65.11-3.92"/><path class="uuid-3994e803-c634-4fdf-b0dd-8091b859ab7d" d="M240.27,263.79c-.04.38-.02.78.18,1.1.2.32.62.53.97.39.51-.21.53-.93.39-1.46-.06-.23-.14-.45-.29-.63-.3-.34-.88-.38-1.23-.08-.34.3-.38.88-.08,1.23"/><path class="uuid-38771e74-5693-4972-9c6e-186b10ce82db" d="M268.1,287.8c-2.67,1.73-4.2,5.07-3.77,8.22.17,1.22.62,2.43,1.51,3.28.88.85,2.24,1.27,3.39.83,1.04-.4,1.76-1.44,1.9-2.54s-.24-2.23-.9-3.12c-.64-.87-1.55-1.55-2-2.54-.56-1.21-.32-2.65.11-3.92"/><path class="uuid-3994e803-c634-4fdf-b0dd-8091b859ab7d" d="M266.37,296.38c-.04.38-.02.78.18,1.1.2.32.62.53.97.39.51-.21.53-.93.39-1.46-.06-.23-.14-.45-.29-.63-.3-.34-.88-.38-1.23-.08-.34.3-.38.88-.08,1.23"/><path class="uuid-38771e74-5693-4972-9c6e-186b10ce82db" d="M148.18,190.74c-1.92,2.54-2.21,6.2-.73,9.02.57,1.09,1.42,2.07,2.54,2.57,1.12.5,2.54.43,3.47-.38.84-.73,1.16-1.95.91-3.04s-.99-2.01-1.92-2.63c-.9-.6-1.99-.93-2.75-1.7-.94-.95-1.2-2.38-1.24-3.72"/><path class="uuid-3994e803-c634-4fdf-b0dd-8091b859ab7d" d="M149.49,199.4c.09.37.25.74.54.97.3.23.76.29,1.04.03.41-.37.19-1.05-.13-1.5-.13-.19-.29-.38-.49-.49-.4-.22-.96-.05-1.18.35-.22.4-.06.96.34,1.18"/><path class="uuid-38771e74-5693-4972-9c6e-186b10ce82db" d="M216.15,210.24c-1.92,2.54-2.21,6.2-.73,9.02.57,1.09,1.42,2.07,2.54,2.57,1.12.5,2.54.43,3.47-.38.84-.73,1.16-1.95.91-3.04s-.99-2.01-1.92-2.63c-.9-.6-1.99-.93-2.75-1.7-.94-.95-1.2-2.38-1.24-3.72"/><path class="uuid-3994e803-c634-4fdf-b0dd-8091b859ab7d" d="M217.45,218.9c.09.37.25.74.54.97.3.23.76.29,1.04.03.41-.37.19-1.05-.13-1.5-.13-.19-.29-.38-.49-.49-.4-.22-.96-.05-1.18.35-.22.4-.06.96.34,1.18"/><path class="uuid-38771e74-5693-4972-9c6e-186b10ce82db" d="M292.16,363.55c-2.93,1.24-5.02,4.26-5.14,7.44-.05,1.23.19,2.5.91,3.5.72.99,1.99,1.64,3.19,1.41,1.09-.21,1.98-1.11,2.31-2.17s.15-2.24-.35-3.23c-.48-.97-1.26-1.8-1.53-2.85-.34-1.29.15-2.66.78-3.84"/><path class="uuid-3994e803-c634-4fdf-b0dd-8091b859ab7d" d="M288.97,371.69c-.11.36-.16.76-.02,1.11.14.35.52.63.89.55.54-.12.69-.82.64-1.37-.02-.23-.06-.47-.18-.67-.24-.39-.81-.52-1.19-.29-.39.24-.53.8-.3,1.19"/></svg>